<svg fill="none" height="15" viewBox="0 0 15 15" width="15" xmlns="http://www.w3.org/2000/svg"><g fill="#E2E8F0"><path d="m7.50006 2.5c-1.02597 0-1.90803.27691-2.6004.87037-.68739.58919-1.13707 1.44692-1.38652 2.51601-.05445.23332.06428.47247.28305.57016s.47609.02646.61348-.16982c.31663-.45232.63277-.72411.93653-.86359.29418-.13508.61128-.16245.97449-.06516.36654.09818.65028.38572 1.09574.87019l.01439.01566c.33579.36523.74541.81078 1.30567 1.15646.58136.3587 1.30481.59971 2.26361.59971 1.0259 0 1.908-.27692 2.6004-.87037.6873-.58919 1.137-1.44692 1.3865-2.51601.0544-.23332-.0643-.47247-.2831-.57016-.2187-.09769-.4761-.02647-.6135.16981-.3166.45233-.6327.72411-.9365.8636-.2942.13508-.6113.16245-.9745.06516-.3665-.09818-.6503-.38572-1.0957-.8702l-.0144-.01566c-.3358-.36523-.7454-.81078-1.30568-1.15645-.58135-.3587-1.30479-.59971-2.26356-.59971z"/><path d="m4.00006 6.99999c-1.02597 0-1.90803.27691-2.6004.87037-.687389.58919-1.137068 1.44691-1.3865235 2.51604-.0544422.2333.0642797.4724.2830495.5701.21877.0977.47609.0265.613487-.1698.316627-.4523.632767-.7241.936527-.86358.29418-.13508.61127-.16245.97449-.06516.36654.09818.65028.38574 1.09574.87024l.01439.0156c.33578.3652.74542.8108 1.30567 1.1565.58136.3587 1.30479.5997 2.26357.5997 1.02596 0 1.90802-.2769 2.60044-.8704.6873-.5892 1.137-1.4469 1.3865-2.516.0544-.23333-.0643-.47247-.2831-.57017-.2187-.09769-.4761-.02646-.6135.16982-.3166.45233-.63272.72411-.93649.86359-.29417.13508-.61127.16246-.97449.06517-.36653-.09818-.65027-.38573-1.09573-.8702l-.0144-.01566c-.33578-.36523-.74541-.81078-1.30567-1.15646-.58135-.35869-1.30479-.5997-2.26356-.5997z"/></g></svg>